<svg xmlns="http://www.w3.org/2000/svg" width="32" height="32" fill-rule="evenodd">
    <path d="M4 16h2v-2h2v-2h2v-6h2v-2h8v4h2v2h-2v4h4v2h2v2h2v4h-4v-2h-2v6h2v2h2v2h2v2h-6v-2h-2v-2h-2v-2h-2v2h-2v4h-6v-2h2v-2h-2v-6h2v-2h2v-2h-4v2h-2v2h-2v-6M16 6h2v2h-2v-2zm-2 4h4v2h-4v-2z"/>
<!--    <path id="head" fill="red" d="M10 12v-6h2v-2h8v4h2v2h-2v2zM16 6h2v2h-2v-2zm-2 4h4v2h-4v-2z"/>-->
<!--    <path id="right-hand" fill="green" d="M18 12h2v2h4v2h2v2h2v4h-4v-2h-6z"/>-->
<!--    <path id="left-hand" fill="blue" d="M10 12h-2v2h-2v2h-2v6h2v-2h2v-2h2z" />-->
<!--    <path id="foots" fill="yellow" d="M22 20v2h2v6h2v2h-6v-2h-2v-2h-2v2h-2v2h-2v2h-6v-2h2v-6h2v-4z" />-->


</svg>