<svg xmlns="http://www.w3.org/2000/svg" width="32" height="32">
    <path d="M10 14h2v2h-2v-2zm-4 0h2v2h-2v-2zm-4 0h2v2h-2v-2zm-2 2h2v2h-2v-2zm4 0h2v2h-2v-2zm4 0h2v2h-2v-2zm4 0h2v2h-2v-2zm0 -4h2v2h-2v-2z"/>
    <path d="M4 0h6v2h2v2h2v6h-2v2h-2v2h-6v-2h-2v-2h-2v-6h2v-2h2v-2zm4 2h-2v2h-2v2h-2v2h2v2h2v2h2v-2h2v-2h2v-2h-2v-2h-2v-2zm-2 4h2v2h-2v-2"/>
    <path d="M22 0h6v2h2v2h2v6h-2v2h-2v2h-6v-2h-2v-2h-2v-6h2v-2h2v-2zm4 2h-2v2h-2v2h-2v2h2v2h2v2h2v-2h2v-2h2v-2h-2v-2h-2v-2zm-2 4h2v2h-2v-2"/>
    <path d="M4 18h6v2h2v2h2v6h-2v2h-2v2h-6v-2h-2v-2h-2v-6h2v-2h2v-2zm4 2h-2v2h-2v2h-2v2h2v2h2v2h2v-2h2v-2h2v-2h-2v-2h-2v-2zm-2 4h2v2h-2v-2"/>
    <path d="M22 18h6v2h2v2h2v6h-2v2h-2v2h-6v-2h-2v-2h-2v-6h2v-2h2v-2zm4 2h-2v2h-2v2h-2v2h2v2h2v2h2v-2h2v-2h2v-2h-2v-2h-2v-2zm-2 4h2v2h-2v-2"/>
    <path d="M14 0h2v2h-2v-2zm2 2h2v2h-2v-2zm0 2h2v2h-2v-2zm-2 0h2v2h-2v-2zm2 2h2v2h-2v-2zm0 2h2v2h-2v-2zm-2 0h2v2h-2v-2zm2 2h2v2h-2v-2zm-2 2h2v2h-2v-2z"/>
    <path d="M14 14h4v4h-4v-4zm-2 4h2v2h-2v-2zm2 2h2v2h-2v-2zm2 -2h2v2h-2v-2zm2 0h2v2h-2v-2zm0 -2h2v-4h-2v4zm2 0h2v2h-2v-2zm2 -2h2v2h-2v-2zm2 2h2v2h-2v-2zm2 -2h2v2h-2v-2zm2 2h2v2h-2v-2zm2 -2h2v2h-2v-2z"/>
    <path d="M16 22h2v6h-2v-2h-2v-2h2v-2zm-2 6h2v2h-2v-2zm2 2h2v2h-2v-2z"/>
</svg>